<svg width="24" height="24" viewBox="0 0 24 24" fill="none" xmlns="http://www.w3.org/2000/svg">
<g clip-path="url(#clip0_786_12621)">
<path d="M17.5964 12.7678C17.9715 13.1429 18.4803 13.3537 19.0109 13.3537C19.5414 13.3537 20.0502 13.1429 20.4254 12.7678C20.8005 12.3926 21.0113 11.8838 21.0113 11.3533C21.0113 10.8227 20.8005 10.3139 20.4254 9.93876L18.6574 8.17176C19.0325 8.54678 19.5413 8.75741 20.0717 8.75731C20.3344 8.75727 20.5945 8.70549 20.8371 8.60493C21.0797 8.50438 21.3002 8.35702 21.4859 8.17126C21.6716 7.98551 21.8189 7.765 21.9193 7.52232C22.0198 7.27965 22.0715 7.01956 22.0714 6.75691C22.0714 6.49426 22.0196 6.23419 21.9191 5.99155C21.8185 5.74891 21.6711 5.52845 21.4854 5.34276L18.6574 2.51476C18.2824 2.13961 17.7737 1.9288 17.2432 1.92871C16.7128 1.92862 16.204 2.13925 15.8289 2.51426C15.4537 2.88928 15.2429 3.39796 15.2428 3.92841C15.2427 4.45886 15.4534 4.96761 15.8284 5.34276L14.0614 3.57476C13.8756 3.38901 13.6551 3.24166 13.4124 3.14113C13.1697 3.0406 12.9096 2.98886 12.6469 2.98886C12.3842 2.98886 12.1241 3.0406 11.8814 3.14113C11.6387 3.24166 11.4181 3.38901 11.2324 3.57476C11.0466 3.76052 10.8993 3.98104 10.7988 4.22374C10.6982 4.46644 10.6465 4.72657 10.6465 4.98926C10.6465 5.25196 10.6982 5.51208 10.7988 5.75478C10.8993 5.99748 11.0466 6.21801 11.2324 6.40376L17.5964 12.7678Z" stroke="currentColor" stroke-width="1.99868" stroke-linecap="round" stroke-linejoin="round"/>
<path d="M2.5 21.4996L3.9 20.0996" stroke="currentColor" stroke-width="1.99868" stroke-linecap="round" stroke-linejoin="round"/>
<path d="M20.0996 3.9L21.4996 2.5" stroke="currentColor" stroke-width="1.99868" stroke-linecap="round" stroke-linejoin="round"/>
<path d="M5.34276 21.4854C5.71778 21.8605 6.22646 22.0713 6.75691 22.0714C7.01956 22.0715 7.27965 22.0198 7.52232 21.9193C7.765 21.8189 7.98551 21.6716 8.17126 21.4859C8.35702 21.3002 8.50438 21.0797 8.60493 20.8371C8.70549 20.5945 8.75727 20.3344 8.75731 20.0717C8.75736 19.8091 8.70567 19.549 8.6052 19.3063C8.50474 19.0637 8.35745 18.8431 8.17176 18.6574L9.93876 20.4254C10.3139 20.8005 10.8227 21.0113 11.3533 21.0113C11.8838 21.0113 12.3926 20.8005 12.7678 20.4254C13.1429 20.0502 13.3537 19.5414 13.3537 19.0109C13.3537 18.4803 13.1429 17.9715 12.7678 17.5964L6.40376 11.2324C6.21801 11.0466 5.99748 10.8993 5.75478 10.7988C5.51208 10.6982 5.25196 10.6465 4.98926 10.6465C4.72657 10.6465 4.46644 10.6982 4.22374 10.7988C3.98104 10.8993 3.76052 11.0466 3.57476 11.2324C3.38901 11.4181 3.24166 11.6387 3.14113 11.8814C3.0406 12.1241 2.98886 12.3842 2.98886 12.6469C2.98886 12.9096 3.0406 13.1697 3.14113 13.4124C3.24166 13.6551 3.38901 13.8756 3.57476 14.0614L5.34276 15.8284C4.96761 15.4534 4.45886 15.2427 3.92841 15.2428C3.39796 15.2429 2.88928 15.4537 2.51426 15.8289C2.13925 16.204 1.92862 16.7128 1.92871 17.2432C1.9288 17.7737 2.13961 18.2824 2.51476 18.6574L5.34276 21.4854Z" stroke="currentColor" stroke-width="1.99868" stroke-linecap="round" stroke-linejoin="round"/>
<path d="M9.59961 14.3996L14.3996 9.59961" stroke="currentColor" stroke-width="1.99868" stroke-linecap="round" stroke-linejoin="round"/>
</g>
<defs>
<clipPath id="clip0_786_12621">
<rect width="24" height="24" fill="white"/>
</clipPath>
</defs>
</svg>
