<svg width="24" height="24" viewBox="0 0 24 24" fill="none" xmlns="http://www.w3.org/2000/svg">
<path d="M4.89961 19.1004C0.999609 15.2004 0.999609 8.80039 4.89961 4.90039" stroke="currentColor" stroke-width="1.66557" stroke-linecap="round" stroke-linejoin="round"/>
<path d="M7.8002 16.2002C5.5002 13.9002 5.5002 10.1002 7.8002 7.7002" stroke="currentColor" stroke-width="1.66557" stroke-linecap="round" stroke-linejoin="round"/>
<path d="M12 14C13.1046 14 14 13.1046 14 12C14 10.8954 13.1046 10 12 10C10.8954 10 10 10.8954 10 12C10 13.1046 10.8954 14 12 14Z" stroke="currentColor" stroke-width="1.66557" stroke-linecap="round" stroke-linejoin="round"/>
<path d="M16.2002 7.7998C18.5002 10.0998 18.5002 13.8998 16.2002 16.2998" stroke="currentColor" stroke-width="1.66557" stroke-linecap="round" stroke-linejoin="round"/>
<path d="M19.0996 4.90039C22.9996 8.80039 22.9996 15.1004 19.0996 19.0004" stroke="currentColor" stroke-width="1.66557" stroke-linecap="round" stroke-linejoin="round"/>
</svg>
