<svg width="16" height="16" viewBox="0 0 16 16" fill="none" xmlns="http://www.w3.org/2000/svg">
<g clip-path="url(#clip0_675_10176)">
<path d="M6.66699 9.77344V10.8574C6.66447 11.0859 6.60332 11.3098 6.48938 11.5078C6.37544 11.7058 6.21255 11.8712 6.01633 11.9881C5.59975 12.2966 5.26089 12.6981 5.02665 13.1605C4.79241 13.623 4.66927 14.1337 4.66699 14.6521" stroke="currentColor" stroke-width="1.33245" stroke-linecap="round" stroke-linejoin="round"/>
<path d="M9.33301 9.77344V10.8574C9.33553 11.0859 9.39668 11.3098 9.51062 11.5078C9.62456 11.7058 9.78745 11.8712 9.98367 11.9881C10.4002 12.2966 10.7391 12.6981 10.9734 13.1605C11.2076 13.623 11.3307 14.1337 11.333 14.6521" stroke="currentColor" stroke-width="1.33245" stroke-linecap="round" stroke-linejoin="round"/>
<path d="M12 6.00033H13C13.442 6.00033 13.866 5.82473 14.1785 5.51217C14.4911 5.19961 14.6667 4.77569 14.6667 4.33366C14.6667 3.89163 14.4911 3.46771 14.1785 3.15515C13.866 2.84259 13.442 2.66699 13 2.66699H12" stroke="currentColor" stroke-width="1.33245" stroke-linecap="round" stroke-linejoin="round"/>
<path d="M2.66699 14.667H13.3337" stroke="currentColor" stroke-width="1.33245" stroke-linecap="round" stroke-linejoin="round"/>
<path d="M4 5.99967C4 7.06054 4.42143 8.07796 5.17157 8.8281C5.92172 9.57825 6.93913 9.99967 8 9.99967C9.06087 9.99967 10.0783 9.57825 10.8284 8.8281C11.5786 8.07796 12 7.06054 12 5.99967V1.99967C12 1.82286 11.9298 1.65329 11.8047 1.52827C11.6797 1.40325 11.5101 1.33301 11.3333 1.33301H4.66667C4.48986 1.33301 4.32029 1.40325 4.19526 1.52827C4.07024 1.65329 4 1.82286 4 1.99967V5.99967Z" stroke="currentColor" stroke-width="1.33245" stroke-linecap="round" stroke-linejoin="round"/>
<path d="M3.99967 6.00033H2.99967C2.55765 6.00033 2.13372 5.82473 1.82116 5.51217C1.5086 5.19961 1.33301 4.77569 1.33301 4.33366C1.33301 3.89163 1.5086 3.46771 1.82116 3.15515C2.13372 2.84259 2.55765 2.66699 2.99967 2.66699H3.99967" stroke="currentColor" stroke-width="1.33245" stroke-linecap="round" stroke-linejoin="round"/>
</g>
<defs>
<clipPath id="clip0_675_10176">
<rect width="16" height="16" fill="white"/>
</clipPath>
</defs>
</svg>
