<svg width="24" height="24" viewBox="0 0 24 24" fill="none" xmlns="http://www.w3.org/2000/svg">
<mask id="mask0_1235_1215" style="mask-type:luminance" maskUnits="userSpaceOnUse" x="0" y="0" width="24" height="24">
<path d="M24 0H0V24H24V0Z" fill="white"/>
</mask>
<g mask="url(#mask0_1235_1215)">
<path d="M14.5 11.4004H9.5C9.09 11.4004 8.75 11.0604 8.75 10.6504C8.75 10.2404 9.09 9.90039 9.5 9.90039H14.5C14.91 9.90039 15.25 10.2404 15.25 10.6504C15.25 11.0604 14.91 11.4004 14.5 11.4004Z" fill="#F7F6F2"/>
<path d="M4.93055 22.75C4.51055 22.75 4.12055 22.65 3.77055 22.45C3.00055 22 2.56055 21.09 2.56055 19.96V5.86C2.56055 3.32 4.63055 1.25 7.17055 1.25H16.8206C19.3606 1.25 21.4306 3.32 21.4306 5.86V19.95C21.4306 21.08 20.9906 21.99 20.2206 22.44C19.4506 22.89 18.4406 22.84 17.4506 22.29L12.5706 19.58C12.2806 19.42 11.7106 19.42 11.4206 19.58L6.54055 22.29C6.00055 22.59 5.45055 22.75 4.93055 22.75ZM7.18055 2.75C5.47055 2.75 4.07055 4.15 4.07055 5.86V19.95C4.07055 20.54 4.24055 20.98 4.54055 21.15C4.84055 21.33 5.31055 21.27 5.82055 20.98L10.7006 18.27C11.4406 17.86 12.5606 17.86 13.3006 18.27L18.1806 20.98C18.6906 21.27 19.1606 21.33 19.4606 21.15C19.7606 20.97 19.9306 20.53 19.9306 19.95V5.86C19.9306 4.15 18.5306 2.75 16.8206 2.75H7.18055Z" fill="#F7F6F2"/>
</g>
</svg>
