<svg width="20" height="20" viewBox="0 0 20 20" fill="none" xmlns="http://www.w3.org/2000/svg">
<g clip-path="url(#clip0_382_10821)">
<mask id="mask0_382_10821" style="mask-type:luminance" maskUnits="userSpaceOnUse" x="0" y="0" width="20" height="20">
<path d="M20 0H0V20H20V0Z" fill="white"/>
</mask>
<g mask="url(#mask0_382_10821)">
<path d="M12.0832 9.50099H7.9165C7.57484 9.50099 7.2915 9.21765 7.2915 8.87599C7.2915 8.53432 7.57484 8.25098 7.9165 8.25098H12.0832C12.4248 8.25098 12.7082 8.53432 12.7082 8.87599C12.7082 9.21765 12.4248 9.50099 12.0832 9.50099Z" fill="currentColor"/>
<path d="M4.1083 18.9587C3.7583 18.9587 3.4333 18.8753 3.14163 18.7087C2.49997 18.3337 2.1333 17.5753 2.1333 16.6337V4.88366C2.1333 2.76699 3.8583 1.04199 5.97497 1.04199H14.0167C16.1333 1.04199 17.8583 2.76699 17.8583 4.88366V16.6253C17.8583 17.567 17.4917 18.3253 16.85 18.7003C16.2083 19.0753 15.3667 19.0337 14.5417 18.5753L10.475 16.317C10.2333 16.1837 9.75834 16.1837 9.51667 16.317L5.44997 18.5753C4.99997 18.8253 4.54163 18.9587 4.1083 18.9587ZM5.9833 2.29199C4.5583 2.29199 3.39163 3.45866 3.39163 4.88366V16.6253C3.39163 17.117 3.5333 17.4837 3.7833 17.6253C4.0333 17.7753 4.42497 17.7253 4.84997 17.4837L8.91667 15.2253C9.53333 14.8837 10.4667 14.8837 11.0833 15.2253L15.15 17.4837C15.575 17.7253 15.9667 17.7753 16.2167 17.6253C16.4667 17.4753 16.6083 17.1087 16.6083 16.6253V4.88366C16.6083 3.45866 15.4417 2.29199 14.0167 2.29199H5.9833Z" fill="currentColor"/>
</g>
</g>
<defs>
<clipPath id="clip0_382_10821">
<rect width="20" height="20" fill="white"/>
</clipPath>
</defs>
</svg>
