<svg width="20" height="20" viewBox="0 0 20 20" fill="none" xmlns="http://www.w3.org/2000/svg">
<g clip-path="url(#clip0_382_9297)">
<path d="M11.527 13.8067C11.6991 13.8858 11.893 13.9038 12.0767 13.8579C12.2605 13.8121 12.4231 13.7049 12.5378 13.5542L12.8337 13.1667C12.9889 12.9598 13.1902 12.7917 13.4216 12.676C13.6531 12.5603 13.9083 12.5001 14.167 12.5001H16.667C17.109 12.5001 17.5329 12.6757 17.8455 12.9882C18.1581 13.3008 18.3337 13.7247 18.3337 14.1667V16.6667C18.3337 17.1088 18.1581 17.5327 17.8455 17.8453C17.5329 18.1578 17.109 18.3334 16.667 18.3334C12.6887 18.3334 8.87344 16.7531 6.06039 13.94C3.24734 11.127 1.66699 7.31166 1.66699 3.33341C1.66699 2.89139 1.84259 2.46746 2.15515 2.1549C2.46771 1.84234 2.89163 1.66675 3.33366 1.66675H5.83366C6.27569 1.66675 6.69961 1.84234 7.01217 2.1549C7.32473 2.46746 7.50033 2.89139 7.50033 3.33341V5.83341C7.50033 6.09216 7.44008 6.34734 7.32437 6.57877C7.20866 6.8102 7.04065 7.0115 6.83366 7.16675L6.44366 7.45925C6.29067 7.57606 6.18284 7.74224 6.13848 7.92954C6.09413 8.11684 6.11598 8.31373 6.20033 8.48675C7.33923 10.8 9.21235 12.6707 11.527 13.8067Z" stroke="currentColor" stroke-width="1.66557" stroke-linecap="round" stroke-linejoin="round"/>
</g>
<defs>
<clipPath id="clip0_382_9297">
<rect width="20" height="20" fill="white"/>
</clipPath>
</defs>
</svg>
