<svg width="24" height="24" viewBox="0 0 24 24" fill="none" xmlns="http://www.w3.org/2000/svg">
<path d="M14.5 3.99707H9.5L7 6.99509H4C3.46957 6.99509 2.96086 7.20566 2.58579 7.58049C2.21071 7.95531 2 8.46369 2 8.99377V17.9878C2 18.5179 2.21071 19.0263 2.58579 19.4011C2.96086 19.7759 3.46957 19.9865 4 19.9865H20C20.5304 19.9865 21.0391 19.7759 21.4142 19.4011C21.7893 19.0263 22 18.5179 22 17.9878V8.99377C22 8.46369 21.7893 7.95531 21.4142 7.58049C21.0391 7.20566 20.5304 6.99509 20 6.99509H17L14.5 3.99707Z" stroke="currentColor" stroke-width="1.99868" stroke-linecap="round" stroke-linejoin="round"/>
<path d="M12 15.9892C13.6569 15.9892 15 14.6469 15 12.9912C15 11.3354 13.6569 9.99316 12 9.99316C10.3431 9.99316 9 11.3354 9 12.9912C9 14.6469 10.3431 15.9892 12 15.9892Z" stroke="currentColor" stroke-width="1.99868" stroke-linecap="round" stroke-linejoin="round"/>
</svg>
