<svg width="20" height="20" viewBox="0 0 20 20" fill="none" xmlns="http://www.w3.org/2000/svg">
<mask id="mask0_1235_1946" style="mask-type:luminance" maskUnits="userSpaceOnUse" x="0" y="0" width="20" height="20">
<path d="M20 0H0V20H20V0Z" fill="white"/>
</mask>
<g mask="url(#mask0_1235_1946)">
<path d="M7.08317 15.8337H6.6665C3.33317 15.8337 1.6665 15.0003 1.6665 10.8337V6.66699C1.6665 3.33366 3.33317 1.66699 6.6665 1.66699H13.3332C16.6665 1.66699 18.3332 3.33366 18.3332 6.66699V10.8337C18.3332 14.167 16.6665 15.8337 13.3332 15.8337H12.9165C12.6582 15.8337 12.4082 15.9587 12.2498 16.167L10.9998 17.8337C10.4498 18.567 9.54984 18.567 8.99984 17.8337L7.74984 16.167C7.6165 15.9837 7.30817 15.8337 7.08317 15.8337Z" stroke="currentColor" stroke-width="1.5" stroke-miterlimit="10" stroke-linecap="round" stroke-linejoin="round"/>
<path opacity="0.4" d="M5.83301 6.66699H14.1663" stroke="currentColor" stroke-width="1.5" stroke-linecap="round" stroke-linejoin="round"/>
<path opacity="0.4" d="M5.83301 10.834H10.833" stroke="currentColor" stroke-width="1.5" stroke-linecap="round" stroke-linejoin="round"/>
</g>
</svg>
