<svg width="19" height="17" viewBox="0 0 19 17" fill="none" xmlns="http://www.w3.org/2000/svg">
<path d="M1.66536 13.3328C1.44435 13.3328 1.23239 13.245 1.07611 13.0887C0.919829 12.9324 0.832031 12.7204 0.832031 12.4994V1.6661C0.832031 1.44508 0.919829 1.23312 1.07611 1.07684C1.23239 0.920561 1.44435 0.832764 1.66536 0.832764H5.83203C6.71609 0.832764 7.56393 1.18395 8.18905 1.80907C8.81418 2.4342 9.16536 3.28204 9.16536 4.1661C9.16536 3.28204 9.51655 2.4342 10.1417 1.80907C10.7668 1.18395 11.6146 0.832764 12.4987 0.832764H16.6654C16.8864 0.832764 17.0983 0.920561 17.2546 1.07684C17.4109 1.23312 17.4987 1.44508 17.4987 1.6661V12.4994C17.4987 12.7204 17.4109 12.9324 17.2546 13.0887C17.0983 13.245 16.8864 13.3328 16.6654 13.3328H11.6654C11.0023 13.3328 10.3664 13.5962 9.8976 14.065C9.42876 14.5338 9.16536 15.1697 9.16536 15.8328C9.16536 15.1697 8.90197 14.5338 8.43313 14.065C7.96429 13.5962 7.32841 13.3328 6.66536 13.3328H1.66536Z" stroke="currentColor" stroke-width="1.66557" stroke-linecap="round" stroke-linejoin="round"/>
</svg>
