<svg width="28" height="32" viewBox="0 0 28 32" fill="none" xmlns="http://www.w3.org/2000/svg">
<path d="M9.3335 19.2973C9.3335 19.9107 9.3335 20.2187 9.44816 20.4947C9.56283 20.7707 9.77883 20.988 10.2135 21.4227L10.5775 21.7867C11.0122 22.2213 11.2295 22.4373 11.5055 22.552C11.7815 22.6667 12.0882 22.6667 12.7028 22.6667H13.8402C14.7602 22.6667 15.2215 22.6667 15.6362 22.4947C16.0495 22.324 16.3748 21.9987 17.0268 21.3467L27.3908 10.9827C28.3815 9.99201 28.8762 9.49734 29.1042 8.94534C29.2555 8.58082 29.3333 8.19002 29.3333 7.79534C29.3333 7.40067 29.2555 7.00987 29.1042 6.64534C28.8762 6.09334 28.3815 5.59868 27.3908 4.60934C26.4015 3.61868 25.9068 3.12401 25.3548 2.89601C24.9903 2.74472 24.5995 2.66684 24.2048 2.66684C23.8102 2.66684 23.4194 2.74472 23.0548 2.89601C22.5028 3.12401 22.0082 3.61868 21.0175 4.60934L10.6535 14.9733C10.0028 15.6253 9.67616 15.9507 9.5055 16.364C9.3335 16.7773 9.3335 17.24 9.3335 18.16V19.2973Z" stroke="currentColor" stroke-width="2"/>
<path d="M9.23358 20L3.24024 25.9947C3.05505 26.1755 2.9076 26.3913 2.80644 26.6296C2.70528 26.8679 2.65241 27.1239 2.65091 27.3827C2.64941 27.6415 2.6993 27.8981 2.7977 28.1375C2.89609 28.377 3.04103 28.5945 3.22411 28.7775C3.40719 28.9605 3.62477 29.1053 3.86424 29.2036C4.10372 29.3019 4.36031 29.3516 4.61916 29.35C4.87801 29.3484 5.13396 29.2954 5.37218 29.1941C5.61039 29.0928 5.82614 28.9453 6.00691 28.76L12.0002 22.7667M8.66691 26.6667L5.33358 23.3333" stroke="currentColor" stroke-width="2" stroke-linejoin="round"/>
<path d="M24.6667 28C22.8257 28 21.3333 26.5076 21.3333 24.6667C21.3333 22.8257 22.8257 21.3333 24.6667 21.3333C26.5076 21.3333 28 22.8257 28 24.6667C28 26.5076 26.5076 28 24.6667 28Z" stroke="currentColor" stroke-width="2" stroke-linejoin="round"/>
</svg>
