<svg width="16" height="16" viewBox="0 0 16 16" fill="none" xmlns="http://www.w3.org/2000/svg">
<g clip-path="url(#clip0_675_10167)">
<path d="M7.99967 14.6663C11.6816 14.6663 14.6663 11.6816 14.6663 7.99967C14.6663 4.31778 11.6816 1.33301 7.99967 1.33301C4.31778 1.33301 1.33301 4.31778 1.33301 7.99967C1.33301 11.6816 4.31778 14.6663 7.99967 14.6663Z" stroke="currentColor" stroke-width="1.33245" stroke-linecap="round" stroke-linejoin="round"/>
<path d="M8 12C10.2091 12 12 10.2091 12 8C12 5.79086 10.2091 4 8 4C5.79086 4 4 5.79086 4 8C4 10.2091 5.79086 12 8 12Z" stroke="currentColor" stroke-width="1.33245" stroke-linecap="round" stroke-linejoin="round"/>
<path d="M8.00033 9.33366C8.73671 9.33366 9.33366 8.73671 9.33366 8.00033C9.33366 7.26395 8.73671 6.66699 8.00033 6.66699C7.26395 6.66699 6.66699 7.26395 6.66699 8.00033C6.66699 8.73671 7.26395 9.33366 8.00033 9.33366Z" stroke="currentColor" stroke-width="1.33245" stroke-linecap="round" stroke-linejoin="round"/>
</g>
<defs>
<clipPath id="clip0_675_10167">
<rect width="16" height="16" fill="white"/>
</clipPath>
</defs>
</svg>
