<svg width="24" height="24" viewBox="0 0 24 24" fill="none" xmlns="http://www.w3.org/2000/svg">
<path d="M14.106 5.54978C14.3836 5.6884 14.6897 5.76057 15 5.76057C15.3103 5.76057 15.6164 5.6884 15.894 5.54978L19.553 3.72099C19.7056 3.6448 19.8751 3.60887 20.0455 3.61662C20.2159 3.62438 20.3814 3.67555 20.5265 3.76529C20.6715 3.85502 20.7911 3.98033 20.874 4.1293C20.9569 4.27827 21.0003 4.44595 21 4.61639V17.372C20.9999 17.5575 20.9481 17.7394 20.8505 17.8971C20.7528 18.0549 20.6131 18.1824 20.447 18.2654L15.894 20.5409C15.6164 20.6795 15.3103 20.7517 15 20.7517C14.6897 20.7517 14.3836 20.6795 14.106 20.5409L9.894 18.4363C9.6164 18.2976 9.31033 18.2255 9 18.2255C8.68967 18.2255 8.3836 18.2976 8.106 18.4363L4.447 20.2651C4.29436 20.3413 4.12473 20.3772 3.95426 20.3694C3.78379 20.3616 3.61816 20.3103 3.47312 20.2205C3.32808 20.1306 3.20846 20.0052 3.12565 19.8561C3.04284 19.707 2.99958 19.5392 3 19.3686V6.61407C3.0001 6.42854 3.05189 6.24669 3.14956 6.0889C3.24722 5.9311 3.38692 5.8036 3.553 5.72066L8.106 3.44517C8.3836 3.30654 8.68967 3.23438 9 3.23438C9.31033 3.23438 9.6164 3.30654 9.894 3.44517L14.106 5.54978Z" stroke="white" stroke-width="1.99868" stroke-linecap="round" stroke-linejoin="round"/>
<path d="M15 5.75977V20.7499" stroke="white" stroke-width="1.99868" stroke-linecap="round" stroke-linejoin="round"/>
<path d="M9 3.2334V18.2235" stroke="white" stroke-width="1.99868" stroke-linecap="round" stroke-linejoin="round"/>
</svg>
