<svg width="24" height="24" viewBox="0 0 24 24" fill="none" xmlns="http://www.w3.org/2000/svg">
<g clip-path="url(#clip0_1235_2267)">
<mask id="mask0_1235_2267" style="mask-type:luminance" maskUnits="userSpaceOnUse" x="0" y="0" width="24" height="24">
<path d="M24 0H0V24H24V0Z" fill="white"/>
</mask>
<g mask="url(#mask0_1235_2267)">
<path d="M17.7212 1.87598C19.3269 1.47458 20.6068 1.77427 21.4165 2.58398C22.2262 3.3937 22.5259 4.67362 22.1245 6.2793L19.645 16.209C19.4565 16.9633 18.9836 17.7338 18.3462 18.3701C17.7885 18.9268 17.129 19.3569 16.4702 19.582L16.188 19.666L6.26514 22.1436C5.78125 22.2574 5.33092 22.3203 4.90967 22.3203C3.93035 22.3203 3.13473 22.0092 2.56299 21.4375C1.75328 20.6278 1.45361 19.3478 1.85498 17.7422L4.33447 7.8125C4.52305 7.05821 4.99583 6.2867 5.6333 5.65039C6.27068 5.0143 7.04142 4.54412 7.7915 4.35547L7.79053 4.35449L17.7212 1.87598ZM21.0767 2.93066C20.317 2.15789 19.1267 2.03658 17.8618 2.34473L17.8579 2.3457L7.9292 4.83496C7.23129 5.00798 6.54501 5.45879 6.00049 6.00195C5.45578 6.54531 5.00412 7.23087 4.82568 7.92676L4.82471 7.92969L2.34424 17.8594C2.02335 19.1331 2.16052 20.315 2.91357 21.0811L2.9165 21.084C3.67423 21.8417 4.8694 21.9752 6.14014 21.6553L6.14111 21.6562L16.0708 19.1758L16.0698 19.1748C16.7687 19.0016 17.4556 18.5492 17.9985 18.0049C18.5415 17.4606 18.9914 16.7745 19.1646 16.082L21.645 6.15332C21.9662 4.87938 21.8296 3.69691 21.0767 2.93066Z" fill="currentColor" stroke="currentColor"/>
<path d="M12 8.25C14.0639 8.25 15.75 9.93614 15.75 12C15.75 14.0639 14.0639 15.75 12 15.75C9.93614 15.75 8.25 14.0639 8.25 12C8.25 9.93614 9.93614 8.25 12 8.25ZM12 8.75C10.2039 8.75 8.75 10.2039 8.75 12C8.75 13.7961 10.2039 15.25 12 15.25C13.7961 15.25 15.25 13.7961 15.25 12C15.25 10.2039 13.7961 8.75 12 8.75Z" fill="currentColor" stroke="currentColor"/>
</g>
</g>
<defs>
<clipPath id="clip0_1235_2267">
<rect width="24" height="24" fill="white"/>
</clipPath>
</defs>
</svg>
