<svg width="14" height="18" viewBox="0 0 14 18" fill="none" xmlns="http://www.w3.org/2000/svg">
<path d="M6.66634 0.833008C7.2219 3.05523 8.33301 4.86079 9.99967 6.24967C11.6663 7.63856 12.4997 9.16634 12.4997 10.833C12.4997 12.3801 11.8851 13.8638 10.7911 14.9578C9.69717 16.0518 8.21344 16.6663 6.66634 16.6663C5.11925 16.6663 3.63551 16.0518 2.54155 14.9578C1.44759 13.8638 0.833008 12.3801 0.833008 10.833C0.833008 9.93147 1.12542 9.05424 1.66634 8.33301C1.66634 8.88554 1.88583 9.41545 2.27654 9.80615C2.66724 10.1968 3.19714 10.4163 3.74967 10.4163C4.30221 10.4163 4.83211 10.1968 5.22281 9.80615C5.61351 9.41545 5.83301 8.88554 5.83301 8.33301C5.83301 6.66634 4.58301 5.83301 4.58301 4.16634C4.58301 3.05523 5.27745 1.94412 6.66634 0.833008Z" stroke="currentColor" stroke-width="1.66557" stroke-linecap="round" stroke-linejoin="round"/>
</svg>
