<svg width="24" height="24" viewBox="0 0 24 24" fill="none" xmlns="http://www.w3.org/2000/svg">
<g clip-path="url(#clip0_523_8618)">
<path d="M0 20.5004H24M14 9.50043H3.5C3.11175 9.5004 2.73188 9.61337 2.40675 9.82557C2.08161 10.0378 1.82527 10.34 1.669 10.6954C1.455 11.1804 1.711 11.7114 2.086 12.0854L6.616 16.6164C7.18224 17.1819 7.94976 17.4995 8.75 17.4995C9.55024 17.4995 10.3178 17.1819 10.884 16.6164L15 12.5004H17C17 12.5004 20.036 12.6744 23.5 10.6744M10 14.0004L5.5 9.50043M2.695 7.50043C2.695 7.50043 0.885 6.94343 0.56 5.72443C0.439609 5.27296 0.502618 4.7922 0.735285 4.387C0.967951 3.9818 1.3514 3.68503 1.802 3.56143C2.025 3.50176 2.2576 3.4868 2.4864 3.51741C2.71521 3.54802 2.93569 3.62359 3.13516 3.73978C3.33464 3.85597 3.50915 4.01047 3.64865 4.19439C3.78815 4.37831 3.88989 4.58802 3.948 4.81143C4.272 6.03043 2.986 7.42143 2.986 7.42143L2.695 7.50043Z" stroke="currentColor" stroke-width="1.33333"/>
</g>
<defs>
<clipPath id="clip0_523_8618">
<rect width="24" height="24" fill="white"/>
</clipPath>
</defs>
</svg>
