<svg width="48" height="48" viewBox="0 0 48 48" fill="none" xmlns="http://www.w3.org/2000/svg">
<g clip-path="url(#clip0_1141_15994)">
<mask id="mask0_1141_15994" style="mask-type:luminance" maskUnits="userSpaceOnUse" x="0" y="0" width="48" height="48">
<path d="M48 0H0V48H48V0Z" fill="white"/>
</mask>
<g mask="url(#mask0_1141_15994)">
<path d="M30 45.5H18C7.14 45.5 2.5 40.86 2.5 30V18C2.5 7.14 7.14 2.5 18 2.5H30C40.86 2.5 45.5 7.14 45.5 18V30C45.5 40.86 40.86 45.5 30 45.5ZM18 5.5C8.78 5.5 5.5 8.78 5.5 18V30C5.5 39.22 8.78 42.5 18 42.5H30C39.22 42.5 42.5 39.22 42.5 30V18C42.5 8.78 39.22 5.5 30 5.5H18Z" fill="#F7F6F2"/>
<path d="M18 21.5C14.96 21.5 12.5 19.04 12.5 16C12.5 12.96 14.96 10.5 18 10.5C21.04 10.5 23.5 12.96 23.5 16C23.5 19.04 21.04 21.5 18 21.5ZM18 13.5C16.62 13.5 15.5 14.62 15.5 16C15.5 17.38 16.62 18.5 18 18.5C19.38 18.5 20.5 17.38 20.5 16C20.5 14.62 19.38 13.5 18 13.5Z" fill="#F7F6F2"/>
<path d="M5.34003 39.3991C4.86003 39.3991 4.38003 39.1591 4.10003 38.7391C3.64003 38.0591 3.82003 37.1191 4.52003 36.6591L14.38 30.0391C16.54 28.5791 19.52 28.7591 21.48 30.4191L22.14 30.9991C23.14 31.8591 24.84 31.8591 25.82 30.9991L34.14 23.8591C36.26 22.0391 39.6 22.0391 41.74 23.8591L45 26.6591C45.62 27.1991 45.7 28.1391 45.16 28.7791C44.62 29.3991 43.68 29.4791 43.04 28.9391L39.78 26.1391C38.78 25.2791 37.08 25.2791 36.08 26.1391L27.76 33.2791C25.64 35.0991 22.3 35.0991 20.16 33.2791L19.5 32.6991C18.58 31.9191 17.06 31.8391 16.04 32.5391L6.18003 39.1591C5.92003 39.3191 5.62003 39.3991 5.34003 39.3991Z" fill="#F7F6F2"/>
</g>
</g>
<defs>
<clipPath id="clip0_1141_15994">
<rect width="48" height="48" fill="white"/>
</clipPath>
</defs>
</svg>
