<svg width="20" height="20" viewBox="0 0 20 20" fill="none" xmlns="http://www.w3.org/2000/svg">
<mask id="mask0_556_9078" style="mask-type:luminance" maskUnits="userSpaceOnUse" x="0" y="0" width="20" height="20">
<path d="M20 0H0V20H20V0Z" fill="white"/>
</mask>
<g mask="url(#mask0_556_9078)">
<path d="M7.50033 18.3334H12.5003C16.667 18.3334 18.3337 16.6667 18.3337 12.5001V7.50008C18.3337 3.33341 16.667 1.66675 12.5003 1.66675H7.50033C3.33366 1.66675 1.66699 3.33341 1.66699 7.50008V12.5001C1.66699 16.6667 3.33366 18.3334 7.50033 18.3334Z" stroke="currentColor" stroke-width="1.5" stroke-linecap="round" stroke-linejoin="round"/>
<path d="M10.0007 12.9168C11.6115 12.9168 12.9173 11.611 12.9173 10.0002C12.9173 8.38933 11.6115 7.0835 10.0007 7.0835C8.38982 7.0835 7.08398 8.38933 7.08398 10.0002C7.08398 11.611 8.38982 12.9168 10.0007 12.9168Z" stroke="currentColor" stroke-width="1.5" stroke-linecap="round" stroke-linejoin="round"/>
<path d="M14.6973 5.8335H14.7069" stroke="currentColor" stroke-width="2" stroke-linecap="round" stroke-linejoin="round"/>
</g>
</svg>
