<svg width="24" height="24" viewBox="0 0 24 24" fill="none" xmlns="http://www.w3.org/2000/svg">
<path d="M11.5624 3.26356C11.6056 3.18521 11.669 3.11988 11.746 3.07438C11.8231 3.02888 11.9109 3.00488 12.0004 3.00488C12.0899 3.00488 12.1778 3.02888 12.2548 3.07438C12.3319 3.11988 12.3953 3.18521 12.4384 3.26356L15.3904 8.86386C15.4608 8.99353 15.5591 9.10603 15.6781 9.19326C15.7972 9.28049 15.9341 9.34029 16.079 9.36838C16.224 9.39647 16.3733 9.39214 16.5164 9.35571C16.6594 9.31928 16.7926 9.25164 16.9064 9.15766L21.1834 5.49608C21.2655 5.42935 21.3667 5.39037 21.4724 5.38476C21.5781 5.37914 21.6828 5.40719 21.7715 5.46485C21.8602 5.52251 21.9284 5.60682 21.9661 5.70563C22.0038 5.80445 22.0092 5.91268 21.9814 6.01474L19.1474 16.254C19.0896 16.4635 18.9649 16.6485 18.7924 16.7808C18.6199 16.9132 18.4089 16.9858 18.1914 16.9875H5.81042C5.59276 16.986 5.38153 16.9135 5.20882 16.7811C5.0361 16.6488 4.91132 16.4637 4.85342 16.254L2.02042 6.01574C1.99267 5.91368 1.99805 5.80545 2.03577 5.70663C2.07348 5.60782 2.14161 5.52351 2.23032 5.46585C2.31904 5.40819 2.42378 5.38014 2.52946 5.38576C2.63515 5.39137 2.73632 5.43035 2.81842 5.49708L7.09442 9.15866C7.20822 9.25264 7.34143 9.32028 7.48449 9.35671C7.62754 9.39314 7.7769 9.39747 7.92182 9.36938C8.06675 9.34129 8.20366 9.28149 8.32272 9.19426C8.44177 9.10703 8.54003 8.99453 8.61042 8.86486L11.5624 3.26356Z" stroke="currentColor" stroke-width="1.99868" stroke-linecap="round" stroke-linejoin="round"/>
<path d="M5 20.9863H19" stroke="currentColor" stroke-width="1.99868" stroke-linecap="round" stroke-linejoin="round"/>
</svg>
