<svg width="20" height="20" viewBox="0 0 20 20" fill="none" xmlns="http://www.w3.org/2000/svg">
<g clip-path="url(#clip0_552_8722)">
<mask id="mask0_552_8722" style="mask-type:luminance" maskUnits="userSpaceOnUse" x="0" y="0" width="20" height="20">
<path d="M20 0H0V20H20V0Z" fill="white"/>
</mask>
<g mask="url(#mask0_552_8722)">
<path d="M13.7505 15.2084H12.4922C12.1505 15.2084 11.8672 14.9251 11.8672 14.5834C11.8672 14.2417 12.1505 13.9584 12.4922 13.9584H13.7505C15.9339 13.9584 17.7089 12.1834 17.7089 10.0001C17.7089 7.81675 15.9339 6.04175 13.7505 6.04175H12.5005C12.1589 6.04175 11.8755 5.75841 11.8755 5.41675C11.8755 5.07508 12.1505 4.79175 12.5005 4.79175H13.7505C16.6255 4.79175 18.9589 7.12508 18.9589 10.0001C18.9589 12.8751 16.6255 15.2084 13.7505 15.2084Z" fill="currentColor"/>
<path d="M7.50033 15.2084H6.25033C3.37533 15.2084 1.04199 12.8751 1.04199 10.0001C1.04199 7.12508 3.37533 4.79175 6.25033 4.79175H7.50033C7.84199 4.79175 8.12533 5.07508 8.12533 5.41675C8.12533 5.75841 7.84199 6.04175 7.50033 6.04175H6.25033C4.06699 6.04175 2.29199 7.81675 2.29199 10.0001C2.29199 12.1834 4.06699 13.9584 6.25033 13.9584H7.50033C7.84199 13.9584 8.12533 14.2417 8.12533 14.5834C8.12533 14.9251 7.84199 15.2084 7.50033 15.2084Z" fill="currentColor"/>
<path d="M13.3337 10.625H6.66699C6.32533 10.625 6.04199 10.3417 6.04199 10C6.04199 9.65833 6.32533 9.375 6.66699 9.375H13.3337C13.6753 9.375 13.9587 9.65833 13.9587 10C13.9587 10.3417 13.6753 10.625 13.3337 10.625Z" fill="currentColor"/>
</g>
</g>
<defs>
<clipPath id="clip0_552_8722">
<rect width="20" height="20" fill="white"/>
</clipPath>
</defs>
</svg>
