<svg width="20" height="20" viewBox="0 0 20 20" fill="none" xmlns="http://www.w3.org/2000/svg">
<g clip-path="url(#clip0_985_8381)">
<mask id="mask0_985_8381" style="mask-type:luminance" maskUnits="userSpaceOnUse" x="0" y="0" width="20" height="20">
<path d="M20 0H0V20H20V0Z" fill="white"/>
</mask>
<g mask="url(#mask0_985_8381)">
<path d="M9.99992 11.8079C8.2249 11.8079 6.7749 10.3663 6.7749 8.58292C6.7749 6.79954 8.2249 5.36621 9.99992 5.36621C11.7749 5.36621 13.2249 6.80788 13.2249 8.59125C13.2249 10.3746 11.7749 11.8079 9.99992 11.8079ZM9.99992 6.61621C8.91659 6.61621 8.0249 7.49954 8.0249 8.59125C8.0249 9.68292 8.90825 10.5663 9.99992 10.5663C11.0916 10.5663 11.9749 9.68292 11.9749 8.59125C11.9749 7.49954 11.0833 6.61621 9.99992 6.61621Z" fill="currentColor"/>
<path d="M9.99988 18.967C8.76654 18.967 7.5249 18.5003 6.55824 17.5753C4.0999 15.2087 1.38324 11.4337 2.40824 6.94199C3.33324 2.86699 6.89157 1.04199 9.99988 1.04199C9.99988 1.04199 9.99988 1.04199 10.0082 1.04199C13.1165 1.04199 16.6749 2.86699 17.5999 6.95033C18.6165 11.442 15.8999 15.2087 13.4415 17.5753C12.4749 18.5003 11.2332 18.967 9.99988 18.967ZM9.99988 2.29199C7.5749 2.29199 4.45824 3.58366 3.63324 7.21699C2.73324 11.142 5.1999 14.5253 7.43324 16.667C8.87488 18.0587 11.1332 18.0587 12.5749 16.667C14.7999 14.5253 17.2665 11.142 16.3832 7.21699C15.5499 3.58366 12.4249 2.29199 9.99988 2.29199Z" fill="currentColor"/>
</g>
</g>
<defs>
<clipPath id="clip0_985_8381">
<rect width="20" height="20" fill="white"/>
</clipPath>
</defs>
</svg>
