<svg width="24" height="24" viewBox="0 0 24 24" fill="none" xmlns="http://www.w3.org/2000/svg">
<path d="M3.00001 22.5006C2.85801 22.5006 2.73901 22.4529 2.64301 22.3576C2.54701 22.2623 2.49934 22.1433 2.50001 22.0006C2.50067 21.8579 2.54834 21.7389 2.64301 21.6436C2.73767 21.5483 2.85667 21.5006 3.00001 21.5006C3.45934 21.5006 3.91101 21.4369 4.35501 21.3096C4.79901 21.1816 5.23201 21.0009 5.65401 20.7676C5.75267 20.7103 5.86801 20.6816 6.00001 20.6816C6.13201 20.6816 6.24734 20.7103 6.34601 20.7676C6.76801 21.0009 7.20134 21.1816 7.64601 21.3096C8.09001 21.4369 8.54134 21.5006 9.00001 21.5006C9.45867 21.5006 9.91034 21.4369 10.355 21.3096C10.7997 21.1823 11.2327 21.0016 11.654 20.7676C11.7527 20.7103 11.869 20.6816 12.003 20.6816C12.137 20.6816 12.2513 20.7103 12.346 20.7676C12.768 21.0009 13.2013 21.1816 13.646 21.3096C14.09 21.4369 14.5413 21.5006 15 21.5006C15.4587 21.5006 15.9103 21.4369 16.355 21.3096C16.7997 21.1823 17.2327 21.0016 17.654 20.7676C17.7487 20.7103 17.864 20.6816 18 20.6816C18.136 20.6816 18.2513 20.7103 18.346 20.7676C18.768 21.0009 19.2013 21.1816 19.646 21.3096C20.09 21.4369 20.5413 21.5006 21 21.5006C21.1427 21.5006 21.2617 21.5483 21.357 21.6436C21.4523 21.7389 21.5 21.8579 21.5 22.0006C21.5 22.1433 21.4523 22.2623 21.357 22.3576C21.2617 22.4529 21.1427 22.5006 21 22.5006C20.522 22.5006 20.033 22.4349 19.533 22.3036C19.033 22.1723 18.522 21.9689 18 21.6936C17.478 21.9689 16.967 22.1723 16.467 22.3036C15.967 22.4349 15.478 22.5006 15 22.5006C14.522 22.5006 14.033 22.4349 13.533 22.3036C13.033 22.1723 12.522 21.9689 12 21.6936C11.478 21.9689 10.967 22.1723 10.467 22.3036C9.96701 22.4349 9.47801 22.5006 9.00001 22.5006C8.52201 22.5006 8.03301 22.4349 7.53301 22.3036C7.03301 22.1723 6.52201 21.9689 6.00001 21.6936C5.47801 21.9689 4.96701 22.1723 4.46701 22.3036C3.96701 22.4349 3.47801 22.5006 3.00001 22.5006ZM11.329 9.96259L15.5 13.2506V17.1006C15.7413 17.2713 16.0413 17.4979 16.4 17.7806C16.7587 18.0633 17.042 18.2906 17.25 18.4626C17.0413 18.6339 16.738 18.7856 16.34 18.9176C15.9427 19.0496 15.496 19.1156 15 19.1156C14.4767 19.1156 13.9533 19.0156 13.43 18.8156C12.9073 18.6156 12.4307 18.2989 12 17.8656C11.5693 18.2989 11.1243 18.6063 10.665 18.7876C10.2063 18.9676 9.76667 19.0709 9.34601 19.0976C9.30734 19.0976 9.27001 19.0943 9.23401 19.0876C9.19734 19.0823 9.16167 19.0739 9.12701 19.0626C7.51367 18.0659 6.17267 17.0099 5.10401 15.8946C4.03467 14.7793 3.50001 13.9063 3.50001 13.2756C3.50001 12.9643 3.64567 12.7573 3.93701 12.6546C4.22767 12.5519 4.53201 12.5006 4.85001 12.5006C5.30801 12.5006 5.95601 12.6066 6.79401 12.8186C7.63201 13.0306 8.59534 13.3726 9.68401 13.8446L8.62201 9.93759C8.54267 9.64226 8.54501 9.34493 8.62901 9.04559C8.71301 8.74626 8.86001 8.52226 9.07001 8.37359L12.315 6.00059L11.703 5.89059C11.3697 5.82926 11.0063 5.75859 10.613 5.67859C10.2197 5.59859 9.85667 5.52793 9.52401 5.46659C9.19134 5.40526 8.98734 5.36859 8.91201 5.35659L6.73801 6.84659C6.62001 6.91993 6.49501 6.94759 6.36301 6.92959C6.23101 6.91159 6.12667 6.84359 6.05001 6.72559C5.97667 6.60759 5.95234 6.47826 5.97701 6.33759C6.00167 6.19693 6.07267 6.09026 6.19001 6.01759L8.42001 4.49459C8.51067 4.43726 8.60567 4.39593 8.70501 4.37059C8.80434 4.34526 8.90767 4.34293 9.01501 4.36359L14.05 5.29459C14.2067 5.32793 14.3643 5.39726 14.523 5.50259C14.6823 5.60793 14.8113 5.75526 14.91 5.94459L15.785 7.49459C16.173 8.17926 16.6983 8.76093 17.361 9.23959C18.0237 9.71826 18.7617 10.0303 19.575 10.1756C19.7137 10.2129 19.832 10.2803 19.93 10.3776C20.028 10.4749 20.077 10.5929 20.077 10.7316C20.077 10.8736 20.022 10.9916 19.912 11.0856C19.8013 11.1789 19.677 11.2156 19.539 11.1956C18.5023 11.0323 17.5627 10.6356 16.72 10.0056C15.8773 9.37626 15.1893 8.55226 14.656 7.53359L11.329 9.96259ZM10.108 10.6586L10.731 14.2696C11.283 14.5376 11.8863 14.8603 12.541 15.2376C13.1943 15.6156 13.8473 15.9979 14.5 16.3846V13.9426L10.108 10.6586ZM17 5.19259C16.54 5.19259 16.143 5.02593 15.809 4.69259C15.475 4.35793 15.308 3.96059 15.308 3.50059C15.308 3.04059 15.4747 2.64359 15.808 2.30959C16.1413 1.97559 16.5387 1.80859 17 1.80859C17.4613 1.80859 17.8583 1.97526 18.191 2.30859C18.525 2.64326 18.692 3.04059 18.692 3.50059C18.692 3.96059 18.5253 4.35759 18.192 4.69159C17.8573 5.02559 17.46 5.19259 17 5.19259Z" fill="currentColor"/>
</svg>
