<svg width="24" height="24" viewBox="0 0 24 24" fill="none" xmlns="http://www.w3.org/2000/svg">
<path d="M13.979 19.922L10.089 18.385H4.808C4.57934 18.385 4.38734 18.3073 4.232 18.152C4.07667 17.9967 3.99934 17.8053 4 17.578V15.385C4 14.2717 4.38834 13.3267 5.165 12.55C5.941 11.7733 6.886 11.385 8 11.385H18.725C19.0803 11.385 19.3817 11.505 19.629 11.745C19.8763 11.9863 20 12.283 20 12.635C20 12.9337 19.9123 13.194 19.737 13.416C19.561 13.6387 19.334 13.791 19.056 13.873L16.192 14.644V18.423C16.192 18.7077 16.1287 18.9653 16.002 19.196C15.8753 19.4267 15.705 19.6167 15.491 19.766C15.2737 19.914 15.036 20.0047 14.778 20.038C14.52 20.0713 14.2533 20.0327 13.978 19.922M12.201 15.385H9.183C8.97634 15.385 8.80867 15.4503 8.68 15.581C8.55134 15.7117 8.472 15.857 8.442 16.017C8.412 16.177 8.43434 16.3397 8.509 16.505C8.58234 16.6697 8.72034 16.7877 8.923 16.859L14.346 19C14.5513 19.0773 14.7437 19.055 14.923 18.933C15.1023 18.811 15.1923 18.641 15.193 18.423V15.385H12.201ZM5 17.385H8.196C7.97067 17.2463 7.78534 17.0683 7.64 16.851C7.49534 16.6337 7.423 16.398 7.423 16.144C7.423 15.6627 7.596 15.2493 7.942 14.904C8.28734 14.5573 8.70067 14.384 9.182 14.384H13.142L18.8 12.91C18.8833 12.8767 18.9417 12.835 18.975 12.785C19.0083 12.735 19.0167 12.6767 19 12.61C18.9833 12.5433 18.954 12.4893 18.912 12.448C18.87 12.4067 18.8077 12.386 18.725 12.386H8C7.16667 12.386 6.45834 12.6777 5.875 13.261C5.29167 13.8443 5 14.5523 5 15.385V17.385ZM7.877 9.123C7.29234 8.53833 7 7.83067 7 7C7 6.16933 7.29234 5.46167 7.877 4.877C8.46167 4.29233 9.16934 4 10 4C10.8307 4 11.5383 4.29233 12.123 4.877C12.7077 5.46167 13 6.16933 13 7C13 7.83067 12.7077 8.53833 12.123 9.123C11.5383 9.70767 10.8307 10 10 10C9.16934 10 8.46167 9.70767 7.877 9.123ZM11.413 8.413C11.8043 8.021 12 7.55 12 7C12 6.45 11.8043 5.97933 11.413 5.588C11.0217 5.19667 10.5507 5.00067 10 5C9.44934 4.99933 8.97867 5.19533 8.588 5.588C8.19734 5.98067 8.00134 6.45133 8 7C7.99867 7.54867 8.19467 8.01967 8.588 8.413C8.98134 8.80633 9.452 9.002 10 9C10.548 8.998 11.019 8.80233 11.413 8.413Z" fill="currentColor"/>
</svg>
