<svg width="24" height="24" viewBox="0 0 24 24" fill="none" xmlns="http://www.w3.org/2000/svg">
<g clip-path="url(#clip0_523_8624)">
<path d="M11.5602 7.20883C12.1456 7.20933 12.7073 6.97727 13.1216 6.56369C13.536 6.15011 13.7691 5.58889 13.7697 5.00346C13.7695 4.7136 13.7121 4.42663 13.6009 4.15895C13.4897 3.89126 13.3269 3.64811 13.1217 3.44337C12.9165 3.23864 12.673 3.07634 12.4051 2.96575C12.1371 2.85516 11.8501 2.79844 11.5602 2.79883C10.3396 2.79883 9.35032 3.78583 9.35032 5.00346C9.35122 5.58886 9.58447 6.14997 9.99884 6.56349C10.4132 6.97702 10.9748 7.20913 11.5602 7.20883ZM18.2926 22.1177H0.677321C0.181196 22.1177 0.232196 22.5077 0.232196 22.5077V23.1568C0.232196 23.1568 0.187196 24.0002 1.05345 24.0002H23.1098C23.9817 24.0002 23.9344 23.1763 23.9344 23.1763V21.3786C23.9344 21.3786 23.8606 20.8101 23.1919 20.8101H21.0424C20.3056 20.8101 19.6966 22.1173 18.2929 22.1173L18.2926 22.1177ZM20.0056 18.1345C20.0056 19.2302 20.8973 20.1201 21.9961 20.1201C23.0948 20.1201 23.9884 19.2298 23.9884 18.1345C23.9884 17.0346 23.0944 16.1481 21.9961 16.1481C21.7349 16.1477 21.4762 16.1988 21.2348 16.2984C20.9934 16.398 20.774 16.5443 20.5892 16.7287C20.4043 16.9132 20.2576 17.1323 20.1575 17.3735C20.0573 17.6147 20.0057 17.8733 20.0056 18.1345ZM13.4989 14.3458C13.4328 14.5478 13.3219 14.7323 13.1746 14.8855C13.0273 15.0387 12.8473 15.1568 12.6481 15.2308L10.8754 15.8882L11.5294 16.5373H14.5219L14.5201 11.9567L13.5184 14.3181C13.5136 14.3293 13.5046 14.3357 13.4986 14.3458H13.4989Z" fill="currentColor"/>
<path d="M17.7968 17.6255H11.6093L10.1176 16.169L9.0792 16.5515C8.30895 16.8271 7.37107 16.4063 7.08195 15.641C6.9117 15.1658 6.93532 14.6352 7.21957 14.2486C7.09245 14.243 3.46695 14.2486 3.46695 14.2486C3.32381 14.2481 3.18198 14.2759 3.04957 14.3303C2.91717 14.3847 2.79677 14.4646 2.69526 14.5655C2.59374 14.6664 2.51311 14.7864 2.45796 14.9185C2.4028 15.0505 2.37422 15.1922 2.37382 15.3353C2.37382 15.938 2.86395 16.409 3.46695 16.409H7.15807L8.6217 18.6248L1.06507 19.232C0.803534 19.2917 0.573173 19.4457 0.418012 19.6645C0.262852 19.8834 0.193775 20.1517 0.223981 20.4183C0.254187 20.6849 0.381558 20.9309 0.581753 21.1095C0.781948 21.2881 1.04093 21.3867 1.3092 21.3863L9.78757 21.3875C9.63437 21.1427 9.55267 20.8599 9.5517 20.5711C9.552 20.1562 9.71696 19.7583 10.0104 19.4649C10.3038 19.1715 10.7016 19.0065 11.1166 19.0062H14.5088L17.2579 18.4321L17.4106 19.1622L14.5857 19.7521H11.1162C10.8993 19.7499 10.6905 19.834 10.5356 19.9858C10.3807 20.1376 10.2924 20.3447 10.2903 20.5615C10.2881 20.7784 10.3721 20.9872 10.5239 21.1421C10.6757 21.297 10.8828 21.3853 11.0997 21.3875L17.8114 21.3882C18.3086 21.386 18.7847 21.187 19.1355 20.8347C19.4863 20.4824 19.6834 20.0055 19.6834 19.5083C19.6834 19.2608 19.6345 19.0156 19.5397 18.7869C19.4448 18.5582 19.3058 18.3505 19.1306 18.1756C18.9553 18.0007 18.7473 17.862 18.5185 17.7676C18.2896 17.6731 18.0444 17.6251 17.7968 17.6255Z" fill="currentColor"/>
<path d="M8.94837 15.8687C8.73832 15.9604 8.50048 15.9651 8.28695 15.8818C8.07342 15.7985 7.90159 15.634 7.80912 15.4243C7.76326 15.3202 7.73839 15.2082 7.73595 15.0945C7.73351 14.9808 7.75355 14.8678 7.79491 14.7618C7.83626 14.6559 7.89813 14.5592 7.97695 14.4773C8.05578 14.3953 8.15001 14.3297 8.25425 14.2843L11.4046 13.1015L12.3781 10.7795L11.7436 10.5452L10.916 12.5334L8.51787 13.4165V10.9858L6.17375 13.5459L3.521 13.5433C3.521 13.5433 8.16312 8.45455 8.30825 8.3023C8.50062 8.11142 8.9405 7.79492 9.77 7.79492H12.7509C14.4444 7.79492 14.7702 9.48317 14.4237 10.3569L12.8649 14.1377C12.8175 14.2463 12.7486 14.3442 12.6624 14.4255C12.5762 14.5067 12.4743 14.5697 12.3631 14.6105L8.94837 15.8679V15.8687Z" fill="currentColor"/>
</g>
<defs>
<clipPath id="clip0_523_8624">
<rect width="24" height="24" fill="white"/>
</clipPath>
</defs>
</svg>
