<svg width="20" height="20" viewBox="0 0 20 20" fill="none" xmlns="http://www.w3.org/2000/svg">
<path d="M7.6786 13.9614L7.35569 12.7573C7.17025 12.0647 7.26746 11.3268 7.62594 10.7058C7.98443 10.0849 8.57484 9.63175 9.26735 9.44602C9.95995 9.26058 10.6978 9.35779 11.3188 9.71627C11.9397 10.0748 12.3929 10.6652 12.5786 11.3577L12.9015 12.5627" stroke="#F7F6F2" stroke-linecap="round" stroke-linejoin="round"/>
<path d="M2.45587 15.3619C2.27753 14.6961 3.3017 13.8431 4.7442 13.4569C6.1867 13.0702 7.50045 13.2969 7.67878 13.9623C7.85712 14.6281 6.83253 15.4811 5.39045 15.8673C3.94795 16.254 2.6342 16.0273 2.45587 15.3619ZM2.45587 15.3619L2.13295 14.1565C0.973366 9.82981 3.54128 5.38231 7.86795 4.22314C12.1946 3.06397 16.6421 5.63147 17.8013 9.95772L18.1246 11.1631M18.1246 11.1631C18.303 11.829 17.2784 12.6819 15.8363 13.0681C14.3938 13.4548 13.08 13.2281 12.9017 12.5627C12.7234 11.8969 13.7475 11.044 15.19 10.6577C16.6325 10.2711 17.9463 10.4973 18.1246 11.1631Z" stroke="#F7F6F2" stroke-linecap="round" stroke-linejoin="round"/>
</svg>
