<svg width="20" height="20" viewBox="0 0 20 20" fill="none" xmlns="http://www.w3.org/2000/svg">
<path d="M17.5 10C17.5 10.9849 17.306 11.9602 16.9291 12.8701C16.5522 13.7801 15.9997 14.6069 15.3033 15.3033C14.6069 15.9997 13.7801 16.5522 12.8701 16.9291C11.9602 17.306 10.9849 17.5 10 17.5C9.01509 17.5 8.03982 17.306 7.12987 16.9291C6.21993 16.5522 5.39314 15.9997 4.6967 15.3033C4.00026 14.6069 3.44781 13.7801 3.0709 12.8701C2.69399 11.9602 2.5 10.9849 2.5 10C2.5 8.01088 3.29018 6.10322 4.6967 4.6967C6.10322 3.29018 8.01088 2.5 10 2.5C11.9891 2.5 13.8968 3.29018 15.3033 4.6967C16.7098 6.10322 17.5 8.01088 17.5 10Z" stroke="currentColor" stroke-width="1.25" stroke-linecap="round" stroke-linejoin="round"/>
<path d="M6.21003 10.9833C5.2867 9.09833 6.54337 5.42666 10.77 6.02666C15.425 6.68833 14.5875 13.925 10.7059 13.6417C9.47753 13.5525 9.01337 12.535 8.8917 11.495M8.8917 11.495C8.80003 10.7067 8.90503 9.90583 9.02503 9.48666C9.22837 8.77249 9.56587 8.87 9.3192 9.81416C9.1992 10.2742 9.05253 10.8517 8.8917 11.495ZM8.8917 11.495C8.46337 13.2117 7.93337 15.3992 7.53337 17.085" stroke="currentColor" stroke-width="1.25" stroke-linecap="round" stroke-linejoin="round"/>
</svg>
