<svg width="16" height="22" viewBox="0 0 16 22" fill="none" xmlns="http://www.w3.org/2000/svg">
<path d="M7.56488 9.62C7.46488 9.61 7.34488 9.61 7.23488 9.62C4.85484 9.54 2.96484 7.59 2.96484 5.19C2.96484 2.74 4.94484 0.75 7.40488 0.75C9.85488 0.75 11.8449 2.74 11.8449 5.19C11.8349 7.59 9.94488 9.54 7.56488 9.62Z" stroke="currentColor" stroke-width="1.5" stroke-linecap="round" stroke-linejoin="round"/>
<path d="M2.565 13.31C0.145 14.93 0.145 17.57 2.565 19.18C5.315 21.02 9.82499 21.02 12.575 19.18C14.995 17.56 14.995 14.92 12.575 13.31C9.83499 11.48 5.325 11.48 2.565 13.31Z" stroke="currentColor" stroke-width="1.5" stroke-linecap="round" stroke-linejoin="round"/>
</svg>
