<svg width="20" height="20" viewBox="0 0 20 20" fill="none" xmlns="http://www.w3.org/2000/svg">
<mask id="mask0_1235_1953" style="mask-type:luminance" maskUnits="userSpaceOnUse" x="0" y="0" width="20" height="20">
<path d="M20 0H0V20H20V0Z" fill="white"/>
</mask>
<g mask="url(#mask0_1235_1953)">
<path d="M11.8501 18.0244C10.8667 18.0244 9.47508 17.3327 8.37508 14.0244L7.77506 12.2244L5.97506 11.6244C2.67507 10.5244 1.9834 9.13275 1.9834 8.14945C1.9834 7.17445 2.67507 5.77445 5.97506 4.66612L13.0501 2.30778C14.8167 1.71612 16.2917 1.89112 17.2001 2.79112C18.1084 3.69112 18.2834 5.17445 17.6917 6.94112L15.3334 14.0161C14.2251 17.3327 12.8334 18.0244 11.8501 18.0244ZM6.36673 5.85778C4.05007 6.63278 3.22507 7.54945 3.22507 8.14945C3.22507 8.74942 4.05007 9.66608 6.36673 10.4327L8.46675 11.1327C8.65008 11.1911 8.80008 11.3411 8.85841 11.5244L9.55842 13.6244C10.3251 15.9411 11.2501 16.7661 11.8501 16.7661C12.4501 16.7661 13.3667 15.9411 14.1417 13.6244L16.5001 6.54945C16.9251 5.26612 16.8501 4.21612 16.3084 3.67445C15.7667 3.13278 14.7167 3.06612 13.4417 3.49112L6.36673 5.85778Z" fill="currentColor"/>
<path d="M8.42512 12.0003C8.26683 12.0003 8.1085 11.942 7.9835 11.817C7.74183 11.5753 7.74183 11.1753 7.9835 10.9337L10.9668 7.94199C11.2085 7.70033 11.6085 7.70033 11.8501 7.94199C12.0918 8.18366 12.0918 8.58366 11.8501 8.82533L8.86679 11.817C8.75012 11.942 8.58345 12.0003 8.42512 12.0003Z" fill="currentColor"/>
</g>
</svg>
