<svg width="20" height="20" viewBox="0 0 20 20" fill="none" xmlns="http://www.w3.org/2000/svg">
<path d="M18.2751 13.8001C18.1584 13.4834 17.9167 13.3334 17.6834 13.1751C17.6417 13.1501 17.5917 13.1251 17.5584 13.1084C17.5001 13.0667 17.4084 13.0334 17.3334 12.9917C16.5501 12.5751 15.9334 12.0501 15.5084 11.4334C15.3941 11.2568 15.2912 11.0731 15.2001 10.8834C15.1667 10.7751 15.1667 10.7167 15.1917 10.6667C15.2167 10.6251 15.2501 10.5834 15.2917 10.5584C15.4167 10.4667 15.5667 10.3834 15.6584 10.3167C15.8334 10.2084 15.9584 10.1251 16.0417 10.0667C16.3667 9.84175 16.5917 9.58341 16.7334 9.33341C16.9334 8.95841 16.9584 8.51675 16.8001 8.12508C16.5917 7.56675 16.0584 7.21675 15.4167 7.21675C15.2834 7.21675 15.1501 7.23341 15.0001 7.25841C15.0001 7.26675 14.9501 7.27508 14.9167 7.28341C14.9167 6.90008 14.9084 6.50008 14.8751 6.10008C14.7584 4.70008 14.2667 3.96675 13.7501 3.38341C13.4251 3.01675 13.0417 2.70008 12.6167 2.45841C11.8417 2.01675 10.9584 1.79175 10.0001 1.79175C9.04172 1.79175 8.16672 2.01675 7.39172 2.45841C6.95839 2.70008 6.57505 3.01675 6.25005 3.38341C5.73339 3.96675 5.25005 4.70008 5.12505 6.10008C5.09172 6.50008 5.08339 6.90008 5.09172 7.28341C5.05005 7.27508 5.00005 7.26675 5.00005 7.25841C4.85005 7.23341 4.71672 7.21675 4.58339 7.21675C3.94172 7.21675 3.40839 7.56675 3.20005 8.12508C3.04172 8.51675 3.06672 8.95841 3.26672 9.33341C3.40839 9.58341 3.63339 9.84175 3.95839 10.0667C4.04172 10.1251 4.16672 10.2084 4.34172 10.3251L4.69172 10.5501C4.74172 10.5834 4.77505 10.6251 4.80839 10.6667C4.83339 10.7251 4.83339 10.7834 4.79172 10.8917C4.70839 11.0834 4.60839 11.2501 4.49172 11.4334C4.07505 12.0417 3.48339 12.5584 2.72505 12.9667C2.31672 13.1834 1.90005 13.3334 1.72505 13.8001C1.59172 14.1667 1.66672 14.5834 2.01672 14.9251C2.14172 15.0501 2.28339 15.1584 2.44172 15.2417C2.77505 15.4167 3.12505 15.5667 3.48339 15.6584C3.55839 15.6834 3.63339 15.7084 3.69172 15.7584C3.81672 15.8584 3.80005 16.0251 3.96672 16.2501C4.05005 16.3834 4.16672 16.4917 4.27505 16.5751C4.61672 16.8167 5.00005 16.8251 5.41672 16.8417C5.78339 16.8584 6.20005 16.8751 6.66672 17.0334C6.88339 17.0834 7.08339 17.2251 7.32505 17.3751C7.91672 17.7251 8.68339 18.2084 10.0001 18.2084C11.3084 18.2084 12.0834 17.7251 12.6834 17.3667C12.9167 17.2251 13.1251 17.0834 13.3334 17.0334C13.7917 16.8751 14.2167 16.8584 14.5834 16.8417C15.0001 16.8334 15.3834 16.8167 15.7251 16.5751C15.8667 16.4751 15.9834 16.3417 16.0751 16.1917C16.1917 15.9917 16.1917 15.8334 16.3001 15.7584C16.3584 15.7167 16.4251 15.6834 16.5001 15.6667C16.8667 15.5667 17.2167 15.4167 17.5501 15.2417C17.7251 15.1501 17.8751 15.0334 18.0001 14.8917H18.0084C18.3334 14.5501 18.4001 14.1667 18.2751 13.8001ZM17.1084 14.4251C16.3917 14.8167 15.9167 14.7751 15.5501 15.0001C15.4167 15.1001 15.3751 15.2334 15.3501 15.3667L15.3251 15.5334C15.3084 15.6501 15.2834 15.7501 15.2001 15.8084C14.9167 16.0001 14.0917 15.7917 13.0251 16.1417C12.1417 16.4334 11.5834 17.2751 10.0001 17.2751C8.41672 17.2751 7.87505 16.4417 6.97505 16.1417C5.91672 15.7917 5.08339 16.0001 4.80839 15.8084C4.58339 15.6501 4.76672 15.2167 4.45005 15.0001C4.08339 14.7751 3.60839 14.8167 2.91672 14.4251C2.65839 14.2917 2.61672 14.1667 2.65005 14.1084C2.68339 14.0334 2.78339 13.9751 2.85005 13.9417C4.22505 13.2834 5.00005 12.4251 5.39172 11.7501C5.75839 11.1501 5.83339 10.6917 5.85839 10.6251C5.88339 10.4501 5.90839 10.3167 5.71672 10.1417C5.53339 9.96675 4.71672 9.46675 4.49172 9.30841C4.10839 9.04175 3.95005 8.78341 4.06672 8.45841C4.16672 8.23341 4.35839 8.15008 4.58339 8.15008C4.65005 8.15008 4.71672 8.15841 4.78339 8.17508C5.20005 8.25841 5.60005 8.46675 5.83339 8.52508C5.85839 8.53341 5.88339 8.53341 5.91672 8.53341C5.99172 8.53341 6.03339 8.50841 6.05839 8.45841C6.06672 8.42508 6.07505 8.38341 6.07505 8.33341C6.04172 7.88341 5.98339 7.00841 6.05005 6.18341C6.08339 5.83341 6.14172 5.53341 6.21672 5.27508C6.38339 4.70841 6.66672 4.33341 6.95005 3.99175C7.15839 3.75008 8.12505 2.72508 10.0001 2.72508C11.5417 2.72508 12.4667 3.42508 12.8667 3.80008C12.9501 3.88341 13.0167 3.95008 13.0501 3.99175C13.3667 4.35841 13.6501 4.75841 13.8167 5.39175C13.8751 5.61675 13.9251 5.88341 13.9501 6.18341C14.0167 7.00008 13.9584 7.88341 13.9251 8.33341C13.9251 8.36675 13.9251 8.40008 13.9334 8.42508C13.9417 8.50008 13.9917 8.53341 14.0834 8.53341C14.1167 8.53341 14.1417 8.53341 14.1667 8.52508C14.4001 8.46675 14.8001 8.25841 15.2167 8.16675C15.2834 8.15841 15.3501 8.15008 15.4167 8.15008C15.6251 8.15008 15.8334 8.22508 15.9167 8.41675L15.9251 8.45008H15.9334V8.45841C16.0584 8.77508 15.8917 9.04175 15.5167 9.30008C15.2917 9.45841 14.4667 9.96675 14.2834 10.1334C14.0917 10.3167 14.1167 10.4501 14.1417 10.6251C14.1667 10.7084 14.3167 11.5001 15.0667 12.3834C15.5251 12.9167 16.1834 13.4751 17.1501 13.9417C17.2084 13.9667 17.2834 14.0084 17.3251 14.0584C17.3501 14.1001 17.3667 14.1334 17.3584 14.1667C17.3501 14.2501 17.2751 14.3334 17.1084 14.4251Z" fill="currentColor"/>
</svg>
