<svg width="24" height="24" viewBox="0 0 24 24" fill="none" xmlns="http://www.w3.org/2000/svg">
<path d="M18.5 7C19.8807 7 21 5.88071 21 4.5C21 3.11929 19.8807 2 18.5 2C17.1193 2 16 3.11929 16 4.5C16 5.88071 17.1193 7 18.5 7Z" stroke="#929292" stroke-width="2"/>
<path d="M9 17L8 18.2C7.262 19.086 6.893 19.528 6.39 19.764C5.887 20 5.31 20 4.157 20H3" stroke="#929292" stroke-width="2" stroke-linecap="round"/>
<path d="M3.62892 8.98364C3.456 9.08204 3.32925 9.2451 3.27655 9.43694C3.25046 9.53194 3.24333 9.63114 3.25557 9.72889C3.26782 9.82664 3.2992 9.92102 3.34792 10.0066C3.39664 10.0923 3.46175 10.1675 3.53953 10.2279C3.6173 10.2884 3.70623 10.3329 3.80122 10.359C3.99307 10.4117 4.198 10.386 4.37092 10.2876L3.62892 8.98364ZM20.9999 12.7496C21.1988 12.7496 21.3896 12.6706 21.5303 12.53C21.6709 12.3893 21.7499 12.1986 21.7499 11.9996C21.7499 11.8007 21.6709 11.61 21.5303 11.4693C21.3896 11.3287 21.1988 11.2496 20.9999 11.2496V12.7496ZM5.06592 8.16764L3.62892 8.98364L4.37092 10.2876L5.80592 9.47164L5.06592 8.16764ZM15.1259 10.5406L15.1889 10.6336L16.4369 9.80164L16.3739 9.70864L15.1259 10.5406ZM11.0459 5.90664C10.9551 5.89749 10.8641 5.89082 10.7729 5.88664L10.7069 7.38464C10.7556 7.38664 10.8169 7.39131 10.8909 7.39864L11.0459 5.90664ZM5.80592 9.47164C8.12492 8.15464 9.19192 7.56264 10.2569 7.41564L10.0519 5.92964C8.63292 6.12564 7.27392 6.91264 5.06592 8.16764L5.80592 9.47164ZM19.1409 12.7496H20.9999V11.2496H19.1399L19.1409 12.7496ZM10.7729 5.88664C10.5321 5.87926 10.2911 5.89366 10.0529 5.92964L10.2569 7.41564C10.4349 7.39164 10.5789 7.37764 10.7069 7.38464L10.7729 5.88664ZM15.1889 10.6346C15.6227 11.2852 16.2103 11.8187 16.8998 12.1876C17.5892 12.5566 18.359 12.7496 19.1409 12.7496V11.2496C18.6058 11.2495 18.0791 11.1173 17.6074 10.8647C17.1356 10.6121 16.7336 10.2469 16.4369 9.80164L15.1889 10.6346ZM16.3739 9.70864C15.1969 7.94264 13.4289 6.15464 11.0459 5.90664L10.8909 7.39864C12.5939 7.57564 14.0249 8.88864 15.1259 10.5406L16.3739 9.70864Z" fill="#929292"/>
<path d="M14.0001 8.5L11.7801 11.276C10.9431 12.321 10.5251 12.844 10.4581 13.413C10.4207 13.7329 10.4612 14.0571 10.5761 14.358C10.7801 14.894 11.3131 15.298 12.3811 16.107C13.1941 16.723 13.6001 17.03 13.8761 17.433C14.0334 17.6643 14.1567 17.9123 14.2461 18.177C14.4001 18.639 14.4001 19.149 14.4001 20.169V22" stroke="#929292" stroke-width="2" stroke-linecap="round"/>
</svg>
