<svg width="24" height="24" viewBox="0 0 24 24" fill="none" xmlns="http://www.w3.org/2000/svg">
<g clip-path="url(#clip0_523_8632)">
<path d="M1.52588 17.8795H6.84188C7.45595 17.8797 8.06324 17.7512 8.6247 17.5026C9.18615 17.2539 9.68934 16.8904 10.1019 16.4355L11.6919 14.6855L12.3929 15.0355C12.8818 15.2794 13.2931 15.6546 13.5807 16.1191C13.8683 16.5837 14.0207 17.1192 14.0209 17.6655V23.0245" stroke="#929292" stroke-width="2" stroke-linecap="round" stroke-linejoin="round"/>
<path d="M16.9609 23.0241V17.6651C16.9639 16.58 16.6652 15.5154 16.0979 14.5904C15.5307 13.6654 14.7174 12.9164 13.7489 12.4271L16.5789 9.31306C16.7705 9.10233 16.8968 8.84045 16.9424 8.55928C16.988 8.27811 16.9509 7.98975 16.8356 7.72927C16.7204 7.46879 16.5319 7.2474 16.2932 7.09202C16.0545 6.93665 15.7757 6.85398 15.4909 6.85406H6.67088C6.28101 6.85406 5.90711 7.00894 5.63143 7.28462C5.35575 7.56029 5.20088 7.93419 5.20088 8.32406C5.20088 8.71393 5.35575 9.08783 5.63143 9.36351C5.90711 9.63919 6.28101 9.79406 6.67088 9.79406H12.1679L7.92788 14.4581C7.79017 14.6095 7.62235 14.7305 7.43516 14.8133C7.24798 14.8962 7.04557 14.939 6.84088 14.9391H1.52588M17.3289 3.54706C17.3289 5.52706 19.4729 6.76506 21.1879 5.77406C21.5789 5.54851 21.9037 5.22393 22.1295 4.83298C22.3552 4.44203 22.474 3.99851 22.4739 3.54706C22.4739 1.56706 20.3299 0.329062 18.6149 1.31906C18.2237 1.5447 17.8988 1.86944 17.673 2.26058C17.4473 2.65172 17.3286 3.09544 17.3289 3.54706Z" stroke="#929292" stroke-width="2" stroke-linecap="round" stroke-linejoin="round"/>
<path d="M19.9009 21.555C19.9009 21.9449 19.746 22.3188 19.4703 22.5944C19.1946 22.8701 18.8207 23.025 18.4309 23.025H11.0809M2.99588 20.82C2.60601 20.82 2.23211 20.6651 1.95643 20.3894C1.68075 20.1138 1.52588 19.7399 1.52588 19.35V12M4.46588 14.94V17.88M14.0209 20.085H16.9609" stroke="#929292" stroke-width="2" stroke-linecap="round" stroke-linejoin="round"/>
</g>
<defs>
<clipPath id="clip0_523_8632">
<rect width="24" height="24" fill="white"/>
</clipPath>
</defs>
</svg>
