<svg width="20" height="20" viewBox="0 0 20 20" fill="none" xmlns="http://www.w3.org/2000/svg">
<path d="M4.375 10C4.375 7.29417 5.0925 5.60667 6.14167 4.58917C7.19583 3.56833 8.685 3.125 10.4333 3.125C12.8133 3.125 14.8875 4.3475 15.6542 6.755C15.7044 6.91302 15.8154 7.0446 15.9627 7.12079C16.11 7.19698 16.2816 7.21153 16.4396 7.16125C16.5976 7.11097 16.7292 6.99997 16.8054 6.85268C16.8816 6.70538 16.8961 6.53386 16.8458 6.37583C15.8858 3.36333 13.2617 1.875 10.4325 1.875C8.48917 1.875 6.6375 2.36917 5.2725 3.69167C3.90333 5.01833 3.125 7.08083 3.125 10C3.125 12.9192 3.90333 14.9817 5.2725 16.3083C6.6375 17.6308 8.48917 18.125 10.4325 18.125C12.8758 18.125 14.9567 16.8108 15.8608 15.0583C16.3167 14.175 16.4775 13.1675 16.2033 12.1758C15.9283 11.1825 15.2367 10.2725 14.1117 9.54917L14.0558 9.5175C13.9294 9.45395 13.8007 9.39502 13.67 9.34083C13.6561 9.15972 13.6375 8.97806 13.6142 8.79583C13.4267 7.32083 12.5192 6.2975 11.3492 5.89583C10.1942 5.5 8.83583 5.72667 7.7475 6.61083C7.68096 6.66157 7.6253 6.72516 7.58379 6.79782C7.54229 6.87047 7.5158 6.95073 7.5059 7.03381C7.49599 7.1169 7.50287 7.20113 7.52612 7.28151C7.54938 7.36189 7.58854 7.43678 7.64128 7.50174C7.69402 7.5667 7.75926 7.62041 7.83315 7.65969C7.90703 7.69896 7.98805 7.723 8.0714 7.73037C8.15475 7.73775 8.23874 7.72832 8.31837 7.70263C8.39801 7.67694 8.47167 7.63552 8.535 7.58083C9.30667 6.955 10.2167 6.82917 10.9433 7.07833C11.6567 7.32333 12.2458 7.945 12.3742 8.95333V8.955C11.5133 8.78583 10.6092 8.76583 9.805 8.90583C9.12167 9.02583 8.46 9.27 7.955 9.68917C7.43417 10.1225 7.09917 10.7308 7.09667 11.4925V11.4958C7.09625 11.537 7.09737 11.5781 7.1 11.6192C7.12074 12.0482 7.23599 12.4673 7.4375 12.8467C7.62333 13.1933 7.915 13.5467 8.35917 13.81C8.80333 14.0733 9.365 14.225 10.0617 14.225C11.5617 14.225 12.6083 13.6008 13.1808 12.5175C13.4542 12.0008 13.6067 11.4008 13.6675 10.7583C14.4325 11.3083 14.8367 11.9217 14.9983 12.5083C15.1775 13.1558 15.0825 13.84 14.75 14.485C14.0767 15.7892 12.445 16.875 10.4333 16.875C8.685 16.875 7.19583 16.4317 6.14167 15.4108C5.0925 14.3942 4.375 12.7058 4.375 10ZM10.02 10.1375C10.7742 10.0058 11.6517 10.0517 12.4467 10.2517C12.4275 10.9325 12.3042 11.5017 12.0758 11.9333C11.7475 12.5542 11.1608 12.975 10.0617 12.975C9.55083 12.975 9.21667 12.865 8.99667 12.7333C8.80205 12.619 8.64307 12.4528 8.5375 12.2533C8.42501 12.0392 8.36046 11.8032 8.34833 11.5617L8.3475 11.5C8.3475 11.14 8.49 10.87 8.75417 10.65C9.03667 10.4167 9.46833 10.2333 10.02 10.1375Z" fill="currentColor"/>
</svg>
