<svg width="20" height="20" viewBox="0 0 20 20" fill="none" xmlns="http://www.w3.org/2000/svg">
<path fill-rule="evenodd" clip-rule="evenodd" d="M11.667 2.5C11.888 2.5 12.1 2.5878 12.2563 2.74408C12.4125 2.90036 12.5003 3.11232 12.5003 3.33333C12.5008 4.1016 12.7664 4.84617 13.2522 5.44132C13.738 6.03647 14.4144 6.44573 15.167 6.6C15.3836 6.6442 15.5738 6.77264 15.6957 6.95705C15.8175 7.14146 15.8612 7.36674 15.817 7.58333C15.7728 7.79993 15.6444 7.99009 15.4599 8.11199C15.2755 8.23389 15.0503 8.27754 14.8337 8.23333C13.9655 8.05537 13.1602 7.64986 12.5003 7.05833V14.1667C12.5003 14.9908 12.256 15.7963 11.7981 16.4815C11.3403 17.1667 10.6895 17.7008 9.92818 18.0162C9.16682 18.3315 8.32904 18.414 7.52079 18.2533C6.71253 18.0925 5.9701 17.6957 5.38738 17.1129C4.80466 16.5302 4.40783 15.7878 4.24706 14.9795C4.08628 14.1713 4.1688 13.3335 4.48416 12.5722C4.79953 11.8108 5.33358 11.16 6.01878 10.7022C6.70399 10.2444 7.50957 10 8.33366 10C8.55468 10 8.76664 10.0878 8.92292 10.2441C9.0792 10.4004 9.16699 10.6123 9.16699 10.8333C9.16699 11.0543 9.0792 11.2663 8.92292 11.4226C8.76664 11.5789 8.55468 11.6667 8.33366 11.6667C7.83921 11.6667 7.35586 11.8133 6.94474 12.088C6.53361 12.3627 6.21318 12.7531 6.02396 13.21C5.83474 13.6668 5.78523 14.1694 5.8817 14.6544C5.97816 15.1393 6.21626 15.5848 6.56589 15.9344C6.91553 16.2841 7.36098 16.5222 7.84594 16.6186C8.33089 16.7151 8.83355 16.6656 9.29037 16.4764C9.74719 16.2871 10.1376 15.9667 10.4123 15.5556C10.687 15.1445 10.8337 14.6611 10.8337 14.1667V3.33333C10.8337 3.11232 10.9215 2.90036 11.0777 2.74408C11.234 2.5878 11.446 2.5 11.667 2.5Z" fill="currentColor"/>
</svg>
