<svg width="24" height="24" viewBox="0 0 24 24" fill="none" xmlns="http://www.w3.org/2000/svg">
<g clip-path="url(#clip0_1165_3714)">
<path d="M6.89246 20.6125C8.39464 21.5138 10.1973 22.0145 11.9999 22.0145C17.5078 22.0145 22.0144 17.508 22.0144 12C22.0144 6.492 17.5078 1.98547 11.9999 1.98547C6.49188 1.98547 1.98535 6.492 1.98535 12C1.98535 13.8026 2.48608 15.5051 3.28724 17.0072L2.42643 20.318C2.23143 21.068 2.92563 21.7458 3.67078 21.5329L6.89246 20.6125Z" stroke="#F7F6F2" stroke-width="1.50218" stroke-miterlimit="10" stroke-linecap="round" stroke-linejoin="round"/>
<path d="M16.5062 14.8526C16.5062 15.0149 16.4701 15.1816 16.3934 15.3438C16.3166 15.5061 16.2174 15.6593 16.0865 15.8035C15.8653 16.0469 15.6216 16.2226 15.3463 16.3353C15.0756 16.4479 14.7821 16.5065 14.4662 16.5065C14.0059 16.5065 13.5139 16.3984 12.9948 16.1776C12.4759 15.9567 11.9568 15.6593 11.4423 15.2853C10.9232 14.9067 10.4313 14.4876 9.96194 14.0234C9.49707 13.5548 9.07733 13.0635 8.70273 12.5498C8.33264 12.0361 8.03476 11.5223 7.81813 11.0131C7.60148 10.4993 7.49316 10.0081 7.49316 9.53943C7.49316 9.23299 7.54732 8.94007 7.65564 8.66967C7.76397 8.39478 7.93547 8.14241 8.17467 7.91708C8.46352 7.63317 8.77946 7.49347 9.11344 7.49347C9.23981 7.49347 9.36619 7.52051 9.47901 7.57459C9.59636 7.62866 9.70017 7.70978 9.78141 7.82695L10.8285 9.30059C10.9097 9.41325 10.9684 9.5169 11.0091 9.61605C11.0496 9.71068 11.0723 9.80532 11.0723 9.89094C11.0723 9.9991 11.0406 10.1073 10.9774 10.2109C10.9187 10.3146 10.833 10.4227 10.7246 10.5309L10.3816 10.8869C10.3321 10.9365 10.3094 10.995 10.3094 11.0671C10.3094 11.1032 10.314 11.1347 10.323 11.1708C10.3366 11.2068 10.3501 11.2339 10.3591 11.2609C10.4403 11.4096 10.5802 11.6034 10.7788 11.8378C10.9819 12.0721 11.1985 12.3109 11.4333 12.5498C11.677 12.7886 11.9117 13.0095 12.1509 13.2123C12.3856 13.4105 12.5796 13.5457 12.7331 13.6269C12.7557 13.6359 12.7827 13.6494 12.8144 13.6629C12.8504 13.6764 12.8866 13.6809 12.9271 13.6809C13.0039 13.6809 13.0625 13.6539 13.1122 13.6043L13.4552 13.2663C13.5681 13.1537 13.6764 13.068 13.7802 13.014C13.884 12.9509 13.9878 12.9193 14.1006 12.9193C14.1864 12.9193 14.2767 12.9374 14.3759 12.9779C14.4753 13.0185 14.579 13.0771 14.6919 13.1537L16.1858 14.2127C16.3031 14.2938 16.3843 14.3885 16.434 14.5011C16.4792 14.6138 16.5062 14.7265 16.5062 14.8526Z" stroke="#F7F6F2" stroke-width="1.50218" stroke-miterlimit="10"/>
</g>
<defs>
<clipPath id="clip0_1165_3714">
<rect width="21.5312" height="21.5312" fill="white" transform="translate(1.23438 1.23438)"/>
</clipPath>
</defs>
</svg>
