<svg width="20" height="20" viewBox="0 0 20 20" fill="none" xmlns="http://www.w3.org/2000/svg">
<g clip-path="url(#clip0_556_9088)">
<mask id="mask0_556_9088" style="mask-type:luminance" maskUnits="userSpaceOnUse" x="0" y="0" width="20" height="20">
<path d="M20 0H0V20H20V0Z" fill="white"/>
</mask>
<g mask="url(#mask0_556_9088)">
<path d="M14.167 17.2916H5.83366C2.96699 17.2916 1.04199 15.3666 1.04199 12.4999V7.49992C1.04199 4.63325 2.96699 2.70825 5.83366 2.70825H14.167C17.0337 2.70825 18.9587 4.63325 18.9587 7.49992V12.4999C18.9587 15.3666 17.0337 17.2916 14.167 17.2916ZM5.83366 3.95825C3.68366 3.95825 2.29199 5.34992 2.29199 7.49992V12.4999C2.29199 14.6499 3.68366 16.0416 5.83366 16.0416H14.167C16.317 16.0416 17.7087 14.6499 17.7087 12.4999V7.49992C17.7087 5.34992 16.317 3.95825 14.167 3.95825H5.83366Z" fill="currentColor"/>
<path d="M8.825 12.9409C8.58333 12.9409 8.35 12.8826 8.1417 12.7659C7.65837 12.4909 7.375 11.9326 7.375 11.2409V8.77425C7.375 8.08262 7.65003 7.5243 8.1417 7.2493C8.625 6.9743 9.25 7.02428 9.84167 7.38261L11.9001 8.61592C12.4668 8.95759 12.7917 9.466 12.7917 10.0077C12.7917 10.5493 12.4668 11.0576 11.9001 11.3993L9.84167 12.6326C9.5 12.8326 9.15 12.9409 8.825 12.9409ZM8.825 8.30762C8.79167 8.30762 8.76667 8.31595 8.75 8.32428C8.69167 8.35759 8.625 8.50759 8.625 8.76592V11.2327C8.625 11.4827 8.69167 11.6327 8.75 11.6743C8.81667 11.7077 8.97508 11.6909 9.19175 11.5576L11.25 10.3243C11.4583 10.1993 11.5333 10.0743 11.5333 9.99925C11.5333 9.92425 11.4583 9.80759 11.25 9.67425L9.19175 8.44092C9.04175 8.34925 8.90833 8.30762 8.825 8.30762Z" fill="currentColor"/>
</g>
</g>
<defs>
<clipPath id="clip0_556_9088">
<rect width="20" height="20" fill="white"/>
</clipPath>
</defs>
</svg>
